<?xml version="1.0" encoding="UTF-8" standalone="no"?>
<!-- Created with Inkscape (http://www.inkscape.org/) -->

<svg
   xmlns:dc="http://purl.org/dc/elements/1.1/"
   xmlns:cc="http://creativecommons.org/ns#"
   xmlns:rdf="http://www.w3.org/1999/02/22-rdf-syntax-ns#"
   xmlns:svg="http://www.w3.org/2000/svg"
   xmlns="http://www.w3.org/2000/svg"
   version="1.1"
   width="50"
   height="50"
   id="svg2">
  <defs
     id="defs4" />
  <metadata
     id="metadata7">
    <rdf:RDF>
      <cc:Work
         rdf:about="">
        <dc:format>image/svg+xml</dc:format>
        <dc:type
           rdf:resource="http://purl.org/dc/dcmitype/StillImage" />
        <dc:title></dc:title>
      </cc:Work>
    </rdf:RDF>
  </metadata>
  <g
     transform="translate(0,-1002.3622)"
     id="layer1">
    <path
       d="M 25,0 C 11.192881,0 0,11.192881 0,25 0,38.807119 11.192881,50 25,50 38.807119,50 50,38.807119 50,25 50,11.192881 38.807119,0 25,0 z m -13.71875,7.03125 13.0625,0 c 5.347362,3.44e-5 9.157251,0.9141289 11.4375,2.71875 2.280191,1.804685 3.406218,4.685749 3.40625,8.6875 -3.2e-5,5.511598 -2.167069,9.079594 -6.53125,10.6875 l 8.6875,12.3125 -9.4375,0 -7.625,-10.96875 -5.3125,0 0,10.96875 -7.6875,0 0,-34.40625 z m 7.6875,6.59375 0,10.1875 5.59375,0 c 2.625114,1.8e-5 4.423842,-0.428214 5.375,-1.28125 0.951112,-0.852999 1.437476,-2.208766 1.4375,-4.0625 -2.4e-5,-1.853688 -0.484599,-3.123652 -1.46875,-3.8125 -0.984197,-0.688795 -2.727583,-1.031222 -5.1875,-1.03125 l -5.75,0 z"
       transform="translate(0,1002.3622)"
       id="path3762"
       style="fill:#24043f;fill-opacity:1;stroke:#ffffff;stroke-width:0;stroke-linecap:butt;stroke-linejoin:round;stroke-miterlimit:4;stroke-opacity:1;stroke-dasharray:none;stroke-dashoffset:0" />
  </g>
</svg>
