<?xml version="1.0" encoding="UTF-8" standalone="no"?>
<!-- Created with Inkscape (http://www.inkscape.org/) -->

<svg
   xmlns:dc="http://purl.org/dc/elements/1.1/"
   xmlns:cc="http://creativecommons.org/ns#"
   xmlns:rdf="http://www.w3.org/1999/02/22-rdf-syntax-ns#"
   xmlns:svg="http://www.w3.org/2000/svg"
   xmlns="http://www.w3.org/2000/svg"
   xmlns:sodipodi="http://sodipodi.sourceforge.net/DTD/sodipodi-0.dtd"
   xmlns:inkscape="http://www.inkscape.org/namespaces/inkscape"
   width="744.09448819"
   height="1052.3622047"
   id="svg2"
   version="1.1"
   inkscape:version="0.48.3.1 r9886"
   sodipodi:docname="possible-logo.svg"
   inkscape:export-filename="C:\Users\Ricky\Documents\GitHub\rickyvetter.com\rickyvetter.com\css\possible-logo.png"
   inkscape:export-xdpi="9"
   inkscape:export-ydpi="9">
  <defs
     id="defs4" />
  <sodipodi:namedview
     id="base"
     pagecolor="#ffffff"
     bordercolor="#666666"
     borderopacity="1.0"
     inkscape:pageopacity="0.0"
     inkscape:pageshadow="2"
     inkscape:zoom="0.35"
     inkscape:cx="-70.714286"
     inkscape:cy="520"
     inkscape:document-units="px"
     inkscape:current-layer="layer1"
     showgrid="false"
     inkscape:window-width="1600"
     inkscape:window-height="877"
     inkscape:window-x="-8"
     inkscape:window-y="-8"
     inkscape:window-maximized="1" />
  <metadata
     id="metadata7">
    <rdf:RDF>
      <cc:Work
         rdf:about="">
        <dc:format>image/svg+xml</dc:format>
        <dc:type
           rdf:resource="http://purl.org/dc/dcmitype/StillImage" />
        <dc:title></dc:title>
      </cc:Work>
    </rdf:RDF>
  </metadata>
  <g
     inkscape:label="Layer 1"
     inkscape:groupmode="layer"
     id="layer1">
    <path
       style="fill:#240438;fill-opacity:1;stroke:none"
       d="M 375 102.375 C 334.87802 102.375 296.97693 111.82703 263.375 128.625 L 381.6875 128.625 C 396.66112 128.51245 410.52235 129.05189 423.3125 130.21875 C 436.10213 131.38646 448.33943 133.88483 460 137.6875 C 482.59225 145.25642 500.5266 158.26214 513.78125 176.75 C 527.0352 195.23862 533.79215 218.9817 534.09375 247.9375 C 533.81725 278.92724 525.95686 304.7343 510.46875 325.40625 C 494.97995 346.07866 473.54315 360.02697 446.15625 367.21875 L 446.15625 368.4375 C 446.4572 368.40003 448.55242 369.95582 452.46875 373.15625 C 456.3845 376.35704 460.3024 381.42194 464.21875 388.3125 L 524.46875 493.125 C 527.65645 498.71044 531.51852 502.44854 536.0625 504.34375 C 540.60574 506.23906 546.59427 507.13811 554 507 L 566.625 507 L 566.625 512.90625 C 603.05302 469.47244 625 413.49785 625 352.375 C 625 214.30381 513.07119 102.375 375 102.375 z M 198.78125 175.03125 C 153.20868 220.31608 125 283.05285 125 352.375 C 125 420.94088 152.61297 483.02145 197.3125 528.1875 L 197.3125 507 L 250.34375 507 L 250.34375 175.03125 L 198.78125 175.03125 z M 310.59375 178.03125 L 310.59375 332.875 L 396.125 332.875 C 419.63355 332.66183 438.29945 325.55756 452.09375 311.5625 C 465.88748 297.56792 472.93591 277.96609 473.25 252.75 C 473.24968 236.14478 469.93934 222.19646 463.3125 210.9375 C 456.68506 199.67922 446.75403 191.33524 433.5 185.875 C 426.53369 183.17681 418.62975 181.20556 409.78125 179.9375 C 400.93226 178.67018 391.34189 178.01908 381.0625 178.03125 L 310.59375 178.03125 z M 310.59375 382.28125 L 310.59375 507 L 363 507 L 363 553.96875 L 227.15625 553.96875 C 268.56387 584.38358 319.68352 602.375 375 602.375 C 430.34109 602.375 481.48886 584.37695 522.90625 553.9375 C 509.417 553.52924 499.40018 551.37443 492.84375 547.5 C 485.11175 542.93129 477.96392 534.46332 471.4375 522.0625 L 405.78125 405.78125 C 400.79809 396.895 395.23731 390.71436 389.125 387.25 C 383.01224 383.78597 373.70107 382.1308 361.1875 382.28125 L 310.59375 382.28125 z "
       id="path2985" />
  </g>
</svg>
