<?xml version="1.0" encoding="UTF-8" standalone="no"?>
<!-- Created with Inkscape (http://www.inkscape.org/) -->

<svg
   xmlns:dc="http://purl.org/dc/elements/1.1/"
   xmlns:cc="http://creativecommons.org/ns#"
   xmlns:rdf="http://www.w3.org/1999/02/22-rdf-syntax-ns#"
   xmlns:svg="http://www.w3.org/2000/svg"
   xmlns="http://www.w3.org/2000/svg"
   xmlns:sodipodi="http://sodipodi.sourceforge.net/DTD/sodipodi-0.dtd"
   xmlns:inkscape="http://www.inkscape.org/namespaces/inkscape"
   width="50"
   height="50"
   id="svg2"
   version="1.1"
   inkscape:version="0.48.3.1 r9886"
   sodipodi:docname="possible-logo2.svg"
   inkscape:export-filename="C:\Users\Ricky\Documents\GitHub\rickyvetter.com\rickyvetter.com\css\possible-logo.png"
   inkscape:export-xdpi="9"
   inkscape:export-ydpi="9">
  <defs
     id="defs4">
    <inkscape:perspective
       sodipodi:type="inkscape:persp3d"
       inkscape:vp_x="0 : 526.18109 : 1"
       inkscape:vp_y="0 : 1000 : 0"
       inkscape:vp_z="744.09448 : 526.18109 : 1"
       inkscape:persp3d-origin="372.04724 : 350.78739 : 1"
       id="perspective3792" />
  </defs>
  <sodipodi:namedview
     id="base"
     pagecolor="#ffffff"
     bordercolor="#666666"
     borderopacity="1.0"
     inkscape:pageopacity="0.0"
     inkscape:pageshadow="2"
     inkscape:zoom="5"
     inkscape:cx="28.8875"
     inkscape:cy="18.273694"
     inkscape:document-units="px"
     inkscape:current-layer="layer1"
     showgrid="false"
     inkscape:window-width="1600"
     inkscape:window-height="877"
     inkscape:window-x="-8"
     inkscape:window-y="-8"
     inkscape:window-maximized="1" />
  <metadata
     id="metadata7">
    <rdf:RDF>
      <cc:Work
         rdf:about="">
        <dc:format>image/svg+xml</dc:format>
        <dc:type
           rdf:resource="http://purl.org/dc/dcmitype/StillImage" />
        <dc:title />
      </cc:Work>
    </rdf:RDF>
  </metadata>
  <g
     inkscape:label="Layer 1"
     inkscape:groupmode="layer"
     id="layer1"
     transform="translate(0,-1002.3622)">
    <path
       style="fill:#24043f;fill-opacity:1;stroke:#ffffff;stroke-width:0;stroke-linecap:butt;stroke-linejoin:round;stroke-miterlimit:4;stroke-opacity:1;stroke-dasharray:none;stroke-dashoffset:0"
       d="M 25 0 C 11.192881 3.1109374e-015 6.2497033e-017 11.192881 0 25 C 0 38.807119 11.192881 50 25 50 C 38.807119 50 50 38.807119 50 25 C 50 11.192881 38.807119 -5.1251935e-015 25 0 z M 11.28125 7.03125 L 24.34375 7.03125 C 29.691112 7.0312844 33.501001 7.9453789 35.78125 9.75 C 38.061441 11.554685 39.187468 14.435749 39.1875 18.4375 C 39.187468 23.949098 37.020431 27.517094 32.65625 29.125 L 41.34375 41.4375 L 31.90625 41.4375 L 24.28125 30.46875 L 18.96875 30.46875 L 18.96875 41.4375 L 11.28125 41.4375 L 11.28125 7.03125 z M 18.96875 13.625 L 18.96875 23.8125 L 24.5625 23.8125 C 27.187614 23.812518 28.986342 23.384286 29.9375 22.53125 C 30.888612 21.678251 31.374976 20.322484 31.375 18.46875 C 31.374976 16.615062 30.890401 15.345098 29.90625 14.65625 C 28.922053 13.967455 27.178667 13.625028 24.71875 13.625 L 18.96875 13.625 z "
       transform="translate(0,1002.3622)"
       id="path3762" />
  </g>
</svg>
